# AST/ASF file generated using VICON BodyLanguage
# -----------------------------------------------
:version 1.10
:name VICON
:units
  mass 1.0
  length 0.45
  angle deg
:documentation
   .ast/.asf automatically generated from VICON data using
   VICON BodyBuilder and BodyLanguage model FoxedUp or BRILLIANT.MOD
:root
   order TX TY TZ RX RY RZ
   axis XYZ
   position 0 0 0  
   orientation 0 0 0 
:bonedata
  begin
     id 1 
     name lhipjoint
     direction 0.677091 -0.635792 0.370561 
     length 2.74323 
     axis 0 0 0  XYZ
  end
  begin
     id 2 
     name lfemur
     direction 0.34202 -0.939693 0  
     length 7.44995  
     axis 0 0 20  XYZ
    dof rx ry rz
    limits (-160.0 20.0)
           (-70.0 70.0)
           (-60.0 70.0)
  end
  begin
     id 3 
     name ltibia
     direction 0.34202 -0.939693 0   
     length 7.34467   
     axis 0 0 20   XYZ
    dof rx
    limits (-10.0 170.0)
  end
  begin
     id 4 
     name lfoot
     direction 0.101953 -0.280114 0.954537   
     length 1.72105   
     axis -90 7.62852e-016 20   XYZ
    dof rx rz
    limits (-45.0 90.0)
           (-70.0 20.0)
  end
  begin
     id 5 
     name ltoes
     direction 1.53537e-011 -4.21915e-011 1   
     length 0.865872   
     axis -90 7.62852e-016 20   XYZ
    dof rx
    limits (-90.0 20.0)
  end
  begin
     id 6 
     name rhipjoint
     direction -0.695735 -0.620586 0.361699   
     length 2.81045  
     axis 0 0 0  XYZ 
  end
  begin
     id 7 
     name rfemur
     direction -0.34202 -0.939693 0   
     length 7.29387   
     axis 0 0 -20   XYZ
    dof rx ry rz
    limits (-160.0 20.0)
           (-70.0 70.0)
           (-70.0 60.0)
  end
  begin
     id 8 
     name rtibia
     direction -0.34202 -0.939693 0   
     length 7.44935   
     axis 0 0 -20   XYZ
    dof rx
    limits (-10.0 170.0)
 end
 begin
     id 9 
     name rfoot
     direction -0.104163 -0.286184 0.952496   
     length 1.77731  
     axis -90 -7.62852e-016 -20   XYZ
    dof rx rz
    limits (-45.0 90.0)
           (-20.0 70.0)
  end
  begin
     id 10 
     name rtoes
     direction -1.5355e-011 -4.21888e-011 1   
     length 0.892424   
     axis -90 -7.62852e-016 -20   XYZ
    dof rx
    limits (-90.0 20.0)
  end
  begin
     id 11 
     name lowerback
     direction 0.0100202 0.997226 -0.0737589   
     length 2.16892   
     axis 0 0 0   XYZ
    dof rx ry rz
    limits (-20.0 45.0)
           (-30.0 30.0)
           (-30.0 30.0)
  end
  begin
     id 12 
     name upperback
     direction 0.00432398 0.999988 -0.00215019   
     length 2.17326   
     axis 0 0 0   XYZ
    dof rx ry rz
    limits (-20.0 45.0)
           (-30.0 30.0)
           (-30.0 30.0)
  end
  begin
     id 13 
     name thorax
     direction -0.00195047 0.999485 0.0320434   
     length 2.18139   
     axis 0 0 0   XYZ
    dof rx ry rz
    limits (-20.0 45.0)
           (-30.0 30.0)
           (-30.0 30.0)
  end
  begin
     id 14 
     name lowerneck
     direction 0.00782762 0.986241 0.165128   
     length 1.88415   
     axis 0 0 0   XYZ
    dof rx ry rz
    limits (-20.0 45.0)
           (-30.0 30.0)
           (-30.0 30.0)
  end
  begin
     id 15 
     name upperneck
     direction 0.00988667 0.981098 -0.193258   
     length 1.9242   
     axis 0 0 0   XYZ
    dof rx ry rz
    limits (-20.0 45.0)
           (-30.0 30.0)
           (-30.0 30.0)
  end
  begin
     id 16
     name head
     direction 0.00252199 0.996513 -0.0833958  
     length 1.93887  
     axis 0 0 0   XYZ
    dof rx ry rz
    limits (-20.0 45.0)
           (-30.0 30.0)
           (-30.0 30.0)
  end
  begin
     id 17 
     name lclavicle
     direction 0.929492 0.368193 -0.0218667  
     length 3.5955  
     axis 0 0 0   XYZ
    dof ry rz
    limits (-20.0 10.0)
           (0.0 20.0)
  end
  begin
     id 18 
     name lhumerus
     direction 1 -4.48972e-011 1.41911e-027   
     length 5.2795   
     axis 180 -30 -90   XYZ
    dof rx ry rz
    limits (-60.0 90.0)
           (-90.0 90.0)
           (-90.0 90.0)
  end
  begin
     id 19
     name lradius
     direction 1 -4.48963e-011 7.05772e-027   
     length 3.53504   
     axis 180 -30 -90   XYZ
    dof rx
    limits (-10.0 170.0)
  end
  begin
     id 20
     name lwrist
     direction 1 -4.48957e-011 9.54866e-027   
     length 1.76752   
     axis -7.69462e-015 90 90   XYZ
    dof ry
    limits (-180.0 0.0)
 end
  begin
     id 21 
     name lhand
     direction 1 -4.48979e-011 1.90973e-026   
     length 0.667948   
     axis -1.21857e-014 90 90   XYZ
    dof rx rz
    limits (-90.0 90.0)
           (-45.0 45.0)
  end
  begin
     id 22 
     name lfingers
     direction 1 -4.48987e-011 3.81946e-026   
     length 0.538517   
     axis -2.43714e-014 90 90   XYZ
    dof rx
    limits (0.0 90.0)
  end
  begin
     id 23
     name lthumb
     direction 0.707107 -6.34962e-011 0.707107   
     length 0.773206   
     axis -90 45 2.85299e-015   XYZ
    dof rx rz
    limits (-45.0 45.0)
           (-45.0 45.0)
  end
  begin
     id 24 
     name rclavicle
     direction -0.898763 0.414256 -0.143584   
     length 3.5176  
     axis 0 0 0   XYZ 
    dof ry rz
    limits (-10.0 20.0)
           (-20.0 0.0)
  end
  begin
     id 25 
     name rhumerus
     direction -1 -4.48971e-011 1.129e-027  
     length 5.25035   
     axis 180 30 90   XYZ
    dof rx ry rz
    limits (-90.0 60.0)
           (-90.0 90.0)
           (-90.0 90.0)
  end
  begin
     id 26 
     name rradius
     direction -1 -4.48955e-011 6.34664e-027   
     length 3.58884   
     axis 180 30 90   XYZ
    dof rx
    limits (-10.0 170.0)
  end
  begin
     id 27 
     name rwrist
     direction -1 -4.48966e-011 9.54866e-027   
     length 1.79442   
     axis -7.69462e-015 -90 -90   XYZ
    dof ry
    limits (-180.0 0.0)
  end
  begin
     id 28
     name rhand
     direction -1 -4.48973e-011 1.90973e-026   
     length 0.779235   
     axis -1.21857e-014 -90 -90   XYZ
    dof rx rz
    limits (-90.0 90.0)
           (-45.0 45.0)
  end
  begin
     id 29
     name rfingers
     direction -1 -4.48984e-011 3.81946e-026   
     length 0.62824   
     axis -2.43714e-014 -90 -90   XYZ
    dof rx
    limits (0.0 90.0)
  end
  begin
     id 30
     name rthumb
     direction -0.707107 -6.34968e-011 0.707107   
     length 0.90203   
     axis -90 -45 -2.85299e-015   XYZ
    dof rx rz
    limits (-45.0 45.0)
           (-45.0 45.0)
  end
:hierarchy
  begin
    root lhipjoint rhipjoint lowerback
    lhipjoint lfemur
    lfemur ltibia
    ltibia lfoot
    lfoot ltoes
    rhipjoint rfemur
    rfemur rtibia
    rtibia rfoot
    rfoot rtoes
    lowerback upperback
    upperback thorax
    thorax lowerneck lclavicle rclavicle
    lowerneck upperneck
    upperneck head
    lclavicle lhumerus
    lhumerus lradius
    lradius lwrist
    lwrist lhand lthumb
    lhand lfingers
    rclavicle rhumerus
    rhumerus rradius
    rradius rwrist
    rwrist rhand rthumb
    rhand rfingers
  end

#!OML:ASF I:\Random Stuff\random\construction\7_22_03\Session 2\subj1.ASF
:FULLY-SPECIFIED
:DEGREES
239
root 6.35509 17.2976 -11.3764 42.8749 -15.5143 -13.9704
lowerback 32.4336 -2.17021 -5.118
upperback 10.8307 -5.1262 -8.60745
thorax -5.20461 -2.40055 -4.6028
lowerneck -9.4737 -1.68002 -10.9907
upperneck 24.9283 1.96934 -8.91307
head 9.62598 -1.03411 -1.04483
rclavicle -5.40694e-014 -2.66371e-014
rhumerus -40.0513 12.0659 -80.2338
rradius 101.313
rwrist -21.7573
rhand -51.0494 57.4308
rfingers 7.12502
rthumb -23.5959 28.8586
lclavicle -5.40694e-014 -2.66371e-014
lhumerus 28.3969 -46.8751 70.9451
lradius 88.6876
lwrist 58.9927
lhand -22.4422 68.7374
lfingers 7.12502
lthumb 3.98173 261.32
rfemur -52.8613 -11.151 48.5493
rtibia 13.0807
rfoot 0.002804 3.01995
rtoes -20.148
lfemur -52.342 7.91229 11.6993
ltibia 33.7397
lfoot -13.2986 9.77424
ltoes -41.0202
240
root 6.35983 17.2993 -11.372 43.1069 -15.3605 -14.0634
lowerback 32.4252 -2.18378 -5.12027
upperback 10.8474 -5.14006 -8.61826
thorax -5.18511 -2.40647 -4.60922
lowerneck -9.3219 -1.7955 -11.1192
upperneck 24.814 1.78768 -8.84682
head 9.55727 -1.10753 -1.01657
rclavicle 5.725e-014 9.66093e-014
rhumerus -40.0638 12.0064 -80.2611
rradius 101.174
rwrist -21.8122
rhand -51.1209 57.7569
rfingers 7.12502
rthumb -23.6646 29.1935
lclavicle 5.725e-014 9.66093e-014
lhumerus 28.5087 -46.9064 71.2561
lradius 88.6747
lwrist 58.7028
lhand -22.255 68.8504
lfingers 7.12502
lthumb 4.16249 261.21
rfemur -52.9834 -11.4267 49.0787
rtibia 12.7158
rfoot 0.121736 3.53299
rtoes -19.6462
lfemur -52.6108 8.05976 11.8044
ltibia 33.7802
lfoot -13.3336 9.66411
ltoes -40.6756
241
root 6.36524 17.2965 -11.3675 43.3005 -15.216 -14.1573
lowerback 32.4271 -2.20637 -5.10117
upperback 10.8692 -5.15711 -8.60623
thorax -5.16346 -2.41421 -4.60152
lowerneck -9.25394 -1.89338 -11.2466
upperneck 24.7167 1.64614 -8.78776
head 9.5112 -1.1672 -0.987859
rclavicle -6.04305e-014 1.86858e-014
rhumerus -40.0186 11.9823 -80.2461
rradius 101.034
rwrist -21.9884
rhand -50.9945 58.0552
rfingers 7.12502
rthumb -23.5433 29.4761
lclavicle -6.04305e-014 1.86858e-014
lhumerus 28.5925 -46.856 71.5825
lradius 88.6742
lwrist 58.0741
lhand -21.7755 68.9102
lfingers 7.12502
lthumb 4.62555 261.16
rfemur -53.0662 -11.5769 49.4609
rtibia 12.4408
rfoot 0.226219 3.82406
rtoes -19.2732
lfemur -52.8717 8.20086 11.888
ltibia 33.8671
lfoot -13.3056 9.62704
ltoes -40.8702
242
root 6.36961 17.2939 -11.3636 43.3932 -15.1677 -14.202
lowerback 32.5045 -2.19454 -5.15933
upperback 10.8863 -5.16548 -8.61945
thorax -5.17047 -2.4175 -4.58047
lowerneck -9.25265 -1.99366 -11.3605
upperneck 24.7015 1.51575 -8.71437
head 9.50724 -1.22648 -0.957592
rclavicle 5.725e-014 5.80451e-014
rhumerus -39.9795 11.9384 -80.2228
rradius 100.889
rwrist -22.2566
rhand -50.8373 58.4575
rfingers 7.12502
rthumb -23.3925 29.8592
lclavicle 5.725e-014 5.80451e-014
lhumerus 28.8798 -46.856 71.8008
lradius 88.5447
lwrist 57.2513
lhand -21.7592 69.1165
lfingers 7.12502
lthumb 4.64129 260.954
rfemur -53.2204 -11.7988 49.7994
rtibia 12.4462
rfoot 0.164008 4.19283
rtoes -19.3348
lfemur -53.0355 8.26438 11.9124
ltibia 34.0099
lfoot -13.286 9.6183
ltoes -41.0404
243
root 6.37069 17.2908 -11.3605 43.4442 -15.1846 -14.2575
lowerback 32.573 -2.15296 -5.26616
upperback 10.8907 -5.15445 -8.64407
thorax -5.18307 -2.41234 -4.55244
lowerneck -9.30182 -2.0828 -11.4742
upperneck 24.7836 1.39983 -8.56001
head 9.54625 -1.27932 -0.900156
rclavicle 3.18055e-015 1.27222e-014
rhumerus -40.0255 11.9421 -80.2346
rradius 100.827
rwrist -22.3769
rhand -50.7019 58.9618
rfingers 7.12502
rthumb -23.2627 30.347
lclavicle 3.18055e-015 1.27222e-014
lhumerus 29.1892 -46.8543 71.8865
lradius 88.3085
lwrist 56.2278
lhand -21.6135 69.3497
lfingers 7.12502
lthumb 4.78194 260.724
rfemur -53.3909 -11.9333 50.0325
rtibia 12.6445
rfoot 0.0449376 4.47621
rtoes -19.4955
lfemur -53.1038 8.32147 11.9501
ltibia 34.1588
lfoot -13.3417 9.64032
ltoes -41.0015
244
root 6.3696 17.2861 -11.3573 43.4717 -15.1629 -14.3243
lowerback 32.6187 -2.1321 -5.34565
upperback 10.9006 -5.15515 -8.64227
thorax -5.18119 -2.41325 -4.50782
lowerneck -9.35227 -2.17774 -11.5749
upperneck 24.885 1.28013 -8.42569
head 9.59317 -1.33613 -0.852732
rclavicle 9.54166e-015 3.89618e-014
rhumerus -40.059 12.0118 -80.2653
rradius 100.81
rwrist -22.2776
rhand -50.7572 59.4453
rfingers 7.12502
rthumb -23.3157 30.8372
lclavicle 9.54166e-015 3.89618e-014
lhumerus 29.6642 -46.819 71.7444
lradius 87.9625
lwrist 55.1157
lhand -21.5816 69.5991
lfingers 7.12502
lthumb 4.81273 260.476
rfemur -53.5513 -12.0117 50.2034
rtibia 12.9249
rfoot -0.077614 4.6065
rtoes -19.3267
lfemur -53.1574 8.38857 12.0038
ltibia 34.3026
lfoot -13.4364 9.67029
ltoes -41.2028
245
root 6.36771 17.28 -11.3536 43.4613 -15.1213 -14.3548
lowerback 32.6673 -2.1042 -5.43041
upperback 10.9123 -5.14586 -8.61436
thorax -5.17409 -2.40985 -4.43635
lowerneck -9.26183 -2.18362 -11.6373
upperneck 24.8155 1.23103 -8.30026
head 9.54948 -1.34455 -0.80165
rclavicle 2.8625e-014 1.98785e-014
rhumerus -40.0645 12.051 -80.2687
rradius 100.777
rwrist -22.1245
rhand -51.0077 59.6477
rfingers 7.12502
rthumb -23.556 31.0703
lclavicle 2.8625e-014 1.98785e-014
lhumerus 30.2559 -46.865 71.546
lradius 87.4157
lwrist 54.0785
lhand -21.7525 69.962
lfingers 7.12502
lthumb 4.64777 260.109
rfemur -53.6972 -12.1258 50.3488
rtibia 13.2115
rfoot -0.231034 4.7111
rtoes -19.2196
lfemur -53.2169 8.40204 12.0392
ltibia 34.4575
lfoot -13.5534 9.66697
ltoes -41.0511
246
root 6.36583 17.2738 -11.3503 43.437 -15.0729 -14.3758
lowerback 32.7101 -2.0866 -5.48178
upperback 10.9224 -5.13891 -8.58531
thorax -5.17006 -2.40724 -4.38046
lowerneck -9.21777 -2.20558 -11.7
upperneck 24.7843 1.17701 -8.19276
head 9.52926 -1.36054 -0.758714
rclavicle -9.54166e-015 1.47101e-014
rhumerus -40.0508 12.0373 -80.2551
rradius 100.739
rwrist -22.0279
rhand -51.1066 59.4072
rfingers 7.12502
rthumb -23.6509 30.842
lclavicle -9.54166e-015 1.47101e-014
lhumerus 30.8021 -46.9154 71.3923
lradius 86.7043
lwrist 53.188
lhand -21.8322 70.2655
lfingers 7.12502
lthumb 4.57076 259.804
rfemur -53.7974 -12.1627 50.393
rtibia 13.4847
rfoot -0.369511 4.67219
rtoes -19.3142
lfemur -53.288 8.46388 12.0317
ltibia 34.6167
lfoot -13.6666 9.53042
ltoes -40.3614
247
root 6.36368 17.2694 -11.348 43.3961 -15.0456 -14.4271
lowerback 32.7565 -2.08282 -5.49031
upperback 10.9306 -5.13939 -8.57462
thorax -5.1766 -2.4075 -4.36349
lowerneck -9.31209 -2.22252 -11.7003
upperneck 24.864 1.15877 -8.11005
head 9.57453 -1.36825 -0.734416
rclavicle 2.22639e-014 -4.73108e-014
rhumerus -40.0294 11.9758 -80.2559
rradius 100.714
rwrist -22.0032
rhand -51.0245 58.8516
rfingers 7.12502
rthumb -23.5721 30.2763
lclavicle 2.22639e-014 -4.73108e-014
lhumerus 31.2512 -46.9046 71.1724
lradius 86.1056
lwrist 52.5969
lhand -21.7602 70.4031
lfingers 7.12502
lthumb 4.64033 259.668
rfemur -53.8384 -12.1596 50.4114
rtibia 13.7432
rfoot -0.493823 4.59052
rtoes -19.4238
lfemur -53.3046 8.57629 12.0295
ltibia 34.7661
lfoot -13.7366 9.28695
ltoes -39.5535
248
root 6.35982 17.2675 -11.3464 43.3411 -15.0694 -14.4802
lowerback 32.7798 -2.09041 -5.52809
upperback 10.9324 -5.16447 -8.5955
thorax -5.18319 -2.41943 -4.35666
lowerneck -9.44162 -2.19115 -11.5644
upperneck 24.9527 1.20503 -8.11211
head 9.62778 -1.3455 -0.7551
rclavicle -3.18055e-015 -1.19271e-015
rhumerus -39.9981 11.9331 -80.3078
rradius 100.69
rwrist -22.0449
rhand -50.9971 58.263
rfingers 7.12502
rthumb -23.5458 29.6842
lclavicle -3.18055e-015 -1.19271e-015
lhumerus 31.5859 -46.7826 70.8352
lradius 85.8239
lwrist 52.6047
lhand -21.7197 70.4305
lfingers 7.12502
lthumb 4.67946 259.641
rfemur -53.8419 -12.1952 50.4671
rtibia 13.9464
rfoot -0.603338 4.62539
rtoes -19.5765
lfemur -53.2566 8.66995 12.0297
ltibia 34.8978
lfoot -13.7606 9.10765
ltoes -39.3018
249
root 6.3553 17.2658 -11.3454 43.2787 -15.0861 -14.4763
lowerback 32.7958 -2.11102 -5.57905
upperback 10.9232 -5.20846 -8.61165
thorax -5.19809 -2.43995 -4.33147
lowerneck -9.47168 -2.09184 -11.3808
upperneck 24.9207 1.31793 -8.17774
head 9.61766 -1.28517 -0.794856
rclavicle 6.36111e-015 -2.38542e-015
rhumerus -39.9314 11.8742 -80.3436
rradius 100.64
rwrist -22.1062
rhand -51.0073 57.7202
rfingers 7.12502
rthumb -23.5556 29.1427
lclavicle 6.36111e-015 -2.38542e-015
lhumerus 31.7463 -46.6073 70.5649
lradius 85.7312
lwrist 53.0777
lhand -21.5835 70.417
lfingers 7.12502
lthumb 4.81094 259.658
rfemur -53.8456 -12.247 50.4843
rtibia 14.0828
rfoot -0.649795 4.65699
rtoes -19.6686
lfemur -53.236 8.72934 11.9743
ltibia 35.0009
lfoot -13.7165 9.03028
ltoes -39.8322
250
root 6.34971 17.2653 -11.3447 43.2206 -15.1026 -14.4721
lowerback 32.8085 -2.08564 -5.63143
upperback 10.908 -5.19281 -8.5819
thorax -5.20939 -2.43338 -4.27733
lowerneck -9.42238 -2.06178 -11.3302
upperneck 24.8653 1.33093 -8.16716
head 9.5864 -1.26955 -0.796165
rclavicle 9.54166e-015 -2.90226e-014
rhumerus -39.8743 11.6991 -80.3127
rradius 100.59
rwrist -22.1415
rhand -50.863 57.3765
rfingers 7.12502
rthumb -23.4172 28.7813
lclavicle 9.54166e-015 -2.90226e-014
lhumerus 31.8735 -46.5409 70.3655
lradius 85.686
lwrist 53.6204
lhand -21.92 70.3956
lfingers 7.12502
lthumb 4.48606 259.672
rfemur -53.8056 -12.1947 50.4022
rtibia 14.1876
rfoot -0.664491 4.55216
rtoes -19.7373
lfemur -53.2051 8.76677 11.929
ltibia 35.069
lfoot -13.6658 9.0178
ltoes -40.3922
251
root 6.34282 17.2669 -11.3441 43.1802 -15.1537 -14.5069
lowerback 32.787 -2.04366 -5.66378
upperback 10.8914 -5.14986 -8.56077
thorax -5.21136 -2.41448 -4.25284
lowerneck -9.39876 -2.05305 -11.3168
upperneck 24.8394 1.31971 -8.11238
head 9.5709 -1.26601 -0.779573
rclavicle -3.18055e-015 2.26615e-014
rhumerus -39.8365 11.4533 -80.3213
rradius 100.535
rwrist -22.169
rhand -50.5349 57.3237
rfingers 7.12502
rthumb -23.1024 28.6888
lclavicle -3.18055e-015 2.26615e-014
lhumerus 31.9909 -46.4417 70.4136
lradius 85.6908
lwrist 53.7923
lhand -22.0582 70.3649
lfingers 7.12502
lthumb 4.35259 259.7
rfemur -53.7248 -12.1025 50.3382
rtibia 14.2458
rfoot -0.690384 4.46236
rtoes -19.9895
lfemur -53.1299 8.80889 11.9292
ltibia 35.1223
lfoot -13.7044 9.06431
ltoes -40.5754
